<svg width="17" height="12" viewBox="0 0 17 12" fill="none" xmlns="http://www.w3.org/2000/svg">
<path d="M8.55643 3.23868C9.35365 3.23868 9.96973 3.4645 10.4409 3.91615C10.9119 4.36774 11.1293 4.96991 11.1293 5.72262V9.33556H10.1147V8.50768H10.0784C9.64359 9.18515 9.02751 9.52385 8.30274 9.52385C7.68666 9.52385 7.14308 9.33562 6.70825 8.95932C6.30961 8.58297 6.05592 8.05609 6.05592 7.49156C6.05592 6.88938 6.27342 6.40009 6.70825 6.02374C7.14308 5.64738 7.75916 5.49685 8.48393 5.49685C9.1362 5.49685 9.64359 5.6098 10.0422 5.87321V5.6098C10.0422 5.2585 9.91592 4.90727 9.66336 4.67838L9.60729 4.63127C9.3174 4.3678 8.95501 4.21727 8.55643 4.21727C7.94035 4.21727 7.46927 4.48074 7.14308 5.00762L6.20092 4.40533C6.78069 3.61497 7.54171 3.23868 8.55643 3.23868ZM3.44677 0.679502C4.097 0.679502 4.71495 0.914502 5.20903 1.35274L5.29495 1.43215C5.80228 1.8838 6.05592 2.56127 6.05592 3.27633C6.05592 3.99138 5.80228 4.63121 5.29495 5.12044C4.78756 5.60974 4.17154 5.87315 3.44677 5.87315L1.70733 5.8355V9.33562H0.620117V0.679443L3.44677 0.679502ZM8.70132 6.40009C8.26649 6.40009 7.9041 6.51297 7.61421 6.7388C7.32427 6.92697 7.17933 7.19038 7.17933 7.52909C7.17933 7.83021 7.32433 8.09362 7.54171 8.24421C7.79541 8.43238 8.08529 8.54527 8.37524 8.54527C8.78107 8.54527 9.18695 8.38132 9.50443 8.08409L9.57109 8.01838C9.93348 7.67968 10.1147 7.26568 10.1147 6.81403C9.78853 6.55062 9.3174 6.40003 8.70137 6.40003L8.70132 6.40009ZM3.51927 1.73327H1.70733V4.74415H3.51927C3.91785 4.74415 4.31648 4.59362 4.57018 4.29256C5.14995 3.72803 5.14995 2.78715 4.60643 2.22256L4.57018 2.18491C4.28023 1.88386 3.91785 1.69568 3.51921 1.73333L3.51927 1.73327ZM17 3.42685L13.4124 11.9701H12.3252L13.666 8.99691L11.3105 3.4645H12.4702L14.1734 7.71727H14.2096L15.8766 3.4645H17V3.42685Z" fill="#5F6368"/>
</svg>
