<svg width="6" height="6" viewBox="0 0 6 6" fill="none" xmlns="http://www.w3.org/2000/svg">
<path d="M5.47467 0.865929C5.39958 0.843626 5.32378 0.82388 5.2474 0.806724C5.16743 0.788837 5.08696 0.773281 5.00611 0.760075C4.71674 0.712433 4.40064 0.689943 4.06119 0.689943H1.19756C1.12922 0.689785 1.06173 0.705395 1.00018 0.735598C0.933234 0.768104 0.875091 0.816718 0.830781 0.877231C0.78647 0.937744 0.757328 1.00833 0.745879 1.08288L0.137207 5.00863L0.119629 5.12307C0.159668 4.86475 0.376855 4.67422 0.634082 4.67422H1.70611C3.8115 4.67422 5.46002 3.80434 5.94158 1.28796C5.95592 1.21353 5.96795 1.14141 5.979 1.07033C5.85705 1.00484 5.72506 0.94826 5.58291 0.9003C5.54704 0.888205 5.51097 0.876746 5.47471 0.865929" fill="#1F264F"/>
</svg>
